<svg width="233" height="48" viewBox="0 0 233 48" fill="none" xmlns="http://www.w3.org/2000/svg">
<circle cx="19" cy="24" r="19" fill="#4365DE"/>
<path d="M11.5 14C10.12 14 9 15.12 9 16.5V18.824C9.00053 19.3587 9.14395 19.8835 9.41541 20.3441C9.68688 20.8048 10.0765 21.1845 10.544 21.444L16.296 24.642C15.0912 25.2502 14.1266 26.2469 13.5582 27.471C12.9897 28.695 12.8506 30.075 13.1632 31.388C13.4758 32.7009 14.2219 33.8701 15.281 34.7066C16.3402 35.5431 17.6504 35.9982 19 35.9982C20.3496 35.9982 21.6598 35.5431 22.719 34.7066C23.7781 33.8701 24.5242 32.7009 24.8368 31.388C25.1494 30.075 25.0103 28.695 24.4418 27.471C23.8734 26.2469 22.9088 25.2502 21.704 24.642L27.458 21.446C27.9254 21.1861 28.3148 20.8059 28.586 20.3449C28.8571 19.8839 29 19.3588 29 18.824V16.5C29 15.12 27.88 14 26.5 14H11.5ZM17 22.744V16H21V22.744L19 23.856L17 22.744ZM23 30C23 31.0609 22.5786 32.0783 21.8284 32.8284C21.0783 33.5786 20.0609 34 19 34C17.9391 34 16.9217 33.5786 16.1716 32.8284C15.4214 32.0783 15 31.0609 15 30C15 28.9391 15.4214 27.9217 16.1716 27.1716C16.9217 26.4214 17.9391 26 19 26C20.0609 26 21.0783 26.4214 21.8284 27.1716C22.5786 27.9217 23 28.9391 23 30Z" fill="white"/>
<path d="M62.9062 35.3906C56.3125 35.3906 52.1719 30.9844 52.1719 23.7188V23.7031C52.1719 16.4375 56.3281 12.0625 62.9062 12.0625C68.375 12.0625 72.2969 15.5156 72.7344 20.2969L72.75 20.4375H68.1562L68.0938 20.1719C67.5625 17.6875 65.7188 16.0625 62.9062 16.0625C59.2969 16.0625 56.9844 18.9688 56.9844 23.6875V23.7031C56.9844 28.4531 59.2969 31.3906 62.9062 31.3906C65.625 31.3906 67.5312 29.8281 68.1406 27.1562L68.1719 27H72.7656L72.75 27.1719C72.3125 31.9688 68.3594 35.3906 62.9062 35.3906ZM74.4463 35V12.4531H79.0088V21.1406H79.1025C79.9619 19.0625 81.7275 17.9062 84.2431 17.9062C87.8681 17.9062 90.1181 20.4375 90.1181 24.4844V35H85.5556V25.4219C85.5556 23.0781 84.3994 21.6875 82.3213 21.6875C80.3056 21.6875 79.0088 23.2188 79.0088 25.4062V35H74.4463ZM99.7831 35.3438C94.6894 35.3438 91.4863 32.0781 91.4863 26.625V26.5938C91.4863 21.2031 94.7675 17.9062 99.7675 17.9062C104.783 17.9062 108.08 21.1719 108.08 26.5938V26.625C108.08 32.0938 104.846 35.3438 99.7831 35.3438ZM99.7988 31.7656C102.018 31.7656 103.439 29.8906 103.439 26.625V26.5938C103.439 23.3594 101.986 21.4844 99.7675 21.4844C97.5644 21.4844 96.1269 23.3594 96.1269 26.5938V26.625C96.1269 29.9062 97.5488 31.7656 99.7988 31.7656ZM109.479 35V18.25H113.964V21.1094H114.057C114.542 19.0781 115.964 17.9062 117.948 17.9062C118.448 17.9062 118.917 17.9844 119.261 18.0781V22.0938C118.886 21.9375 118.261 21.8438 117.604 21.8438C115.354 21.8438 114.042 23.2031 114.042 25.5625V35H109.479ZM127.238 35.3438C122.113 35.3438 119.004 32.0156 119.004 26.6562V26.6406C119.004 21.3125 122.144 17.9062 127.051 17.9062C131.957 17.9062 135.035 21.2344 135.035 26.2969V27.7031H123.504C123.551 30.375 125.004 31.9375 127.332 31.9375C129.207 31.9375 130.348 30.9062 130.676 29.9688L130.707 29.875H134.894L134.848 30.0469C134.332 32.5156 132.019 35.3438 127.238 35.3438ZM127.129 21.3125C125.254 21.3125 123.848 22.5625 123.551 24.8281H130.66C130.379 22.5156 129.019 21.3125 127.129 21.3125ZM136.434 35V18.25H140.997V21.0625H141.091C141.778 19.1562 143.528 17.9062 145.778 17.9062C148.122 17.9062 149.825 19.1562 150.387 21.3594H150.481C151.231 19.25 153.231 17.9062 155.684 17.9062C158.966 17.9062 161.169 20.1719 161.169 23.5469V35H156.606V24.6875C156.606 22.75 155.637 21.6875 153.872 21.6875C152.137 21.6875 150.997 22.9531 150.997 24.8125V35H146.606V24.5469C146.606 22.75 145.591 21.6875 143.903 21.6875C142.169 21.6875 140.997 23 140.997 24.8906V35H136.434ZM165.474 16.0938C164.099 16.0938 163.037 15.0156 163.037 13.7188C163.037 12.4219 164.099 11.3438 165.474 11.3438C166.849 11.3438 167.912 12.4219 167.912 13.7188C167.912 15.0156 166.849 16.0938 165.474 16.0938ZM163.193 35V18.25H167.756V35H163.193ZM169.858 35V18.25H174.421V21H174.514C175.374 19.0781 177.092 17.9062 179.624 17.9062C183.311 17.9062 185.405 20.2656 185.405 24.1875V35H180.842V25.125C180.842 22.9375 179.811 21.6875 177.764 21.6875C175.717 21.6875 174.421 23.1875 174.421 25.375V35H169.858ZM193.539 35.3438C189.32 35.3438 186.726 32.0625 186.726 26.625V26.6094C186.726 21.1562 189.32 17.9062 193.539 17.9062C195.914 17.9062 197.789 19.125 198.695 21.1562H198.789V12.4531H203.351V35H198.789V32.1406H198.695C197.804 34.125 195.961 35.3438 193.539 35.3438ZM195.07 31.5625C197.289 31.5625 198.804 29.6562 198.804 26.625V26.6094C198.804 23.5938 197.273 21.6875 195.07 21.6875C192.804 21.6875 191.367 23.5469 191.367 26.6094V26.625C191.367 29.6719 192.789 31.5625 195.07 31.5625ZM213.063 35.3438C207.938 35.3438 204.829 32.0156 204.829 26.6562V26.6406C204.829 21.3125 207.969 17.9062 212.876 17.9062C217.782 17.9062 220.86 21.2344 220.86 26.2969V27.7031H209.329C209.376 30.375 210.829 31.9375 213.157 31.9375C215.032 31.9375 216.173 30.9062 216.501 29.9688L216.532 29.875H220.719L220.673 30.0469C220.157 32.5156 217.844 35.3438 213.063 35.3438ZM212.954 21.3125C211.079 21.3125 209.673 22.5625 209.376 24.8281H216.485C216.204 22.5156 214.844 21.3125 212.954 21.3125ZM222.259 35V18.25H226.744V21.1094H226.837C227.322 19.0781 228.744 17.9062 230.728 17.9062C231.228 17.9062 231.697 17.9844 232.041 18.0781V22.0938C231.666 21.9375 231.041 21.8438 230.384 21.8438C228.134 21.8438 226.822 23.2031 226.822 25.5625V35H222.259Z" fill="#1A1C1E"/>
</svg>
